<?xml version="1.0" encoding="UTF-8" standalone="no"?>
<svg 
    role="img" 
    xmlns="http://www.w3.org/2000/svg" 
    width="1000mm"
    height="1000mm"
    viewBox="0 0 1000 1000"
    style="max-width:1.6em; height: auto;">
    
    <path 
        id="path" 
        style="opacity:1;vector-effect:none;fill:#ededed;fill-opacity:1;"
        d=" M 500 412C 437 412 387 462 387 525C 387 588 437 638 500 638C 563 638 613 588 613 525C 613 462 563 412 500 412C 500 412 500 412 500 412M 500 337C 603 337 688 422 688 525C 688 628 603 713 500 713C 397 713 312 628 312 525C 312 422 397 337 500 337C 500 337 500 337 500 337M 425 238C 425 238 385 339 385 339C 379 353 365 362 350 362C 350 362 188 362 188 362C 188 362 188 738 188 738C 188 738 812 738 812 738C 812 738 812 362 812 362C 812 362 650 362 650 362C 635 362 621 353 615 339C 615 339 575 238 575 238C 575 238 425 238 425 238M 400 163C 400 163 600 163 600 163C 615 163 629 172 635 186C 635 186 675 287 675 287C 675 287 850 287 850 287C 871 288 887 304 887 325C 887 325 887 775 887 775C 887 796 871 812 850 812C 850 812 150 812 150 812C 129 812 113 796 113 775C 113 775 113 325 113 325C 113 304 129 288 150 287C 150 287 325 287 325 287C 325 287 365 186 365 186C 371 172 385 163 400 163C 400 163 400 163 400 163"
        transform="">
    </path>    
</svg>